<svg width="100" height="100" viewBox="0 0 100 100" fill="none" xmlns="http://www.w3.org/2000/svg">
<path d="M79.0922 75.8556C46.0728 91.5701 25.5806 78.4223 12.4628 70.4365C11.6511 69.9333 10.2715 70.5542 11.4685 71.9291C15.8387 77.2281 30.1606 90 48.855 90C67.5622 90 78.6912 79.7925 80.0834 78.0119C81.4662 76.2463 80.4894 75.2723 79.0919 75.8556H79.0922ZM88.3657 70.7343C87.4789 69.5797 82.9739 69.3644 80.1386 69.7127C77.299 70.0509 73.0368 71.7864 73.4074 72.8284C73.5975 73.2187 73.9856 73.0436 75.9363 72.8683C77.8924 72.6731 83.372 71.9815 84.5138 73.4741C85.661 74.9771 82.7661 82.1366 82.2374 83.2913C81.7266 84.446 82.4326 84.7437 83.3921 83.9747C84.3384 83.206 86.0516 81.2151 87.2013 78.3978C88.3431 75.5651 89.0393 71.6135 88.3653 70.7343H88.3657Z" fill="#FF9900"/>
<path fill-rule="evenodd" clip-rule="evenodd" d="M56.8903 43.7904C56.8903 47.9136 56.9945 51.3522 54.9104 55.0139C53.2283 57.9912 50.5638 59.8221 47.5868 59.8221C43.5228 59.8221 41.1561 56.7258 41.1561 52.1561C41.1561 43.1352 49.2387 41.498 56.8903 41.498V43.7904ZM67.5632 69.5872C66.8634 70.2122 65.8512 70.2571 65.0624 69.8401C61.5495 66.9226 60.9241 65.5681 58.9891 62.7843C53.1838 68.7089 49.0753 70.4801 41.5433 70.4801C32.6416 70.4801 25.7048 64.9873 25.7048 53.9869C25.7048 45.3981 30.3643 39.5479 36.988 36.6901C42.734 34.1592 50.7574 33.7127 56.8903 33.0134V31.6438C56.8903 29.128 57.0836 26.1509 55.6101 23.9778C54.3149 22.0277 51.844 21.2238 49.6705 21.2238C45.6367 21.2238 42.0343 23.2928 41.1561 27.5798C40.9772 28.5327 40.2778 29.4706 39.3252 29.5151L29.054 28.4138C28.1908 28.2199 27.2382 27.5205 27.4764 26.1955C29.8431 13.7514 41.0814 10 51.1439 10C56.2945 10 63.0226 11.3696 67.0865 15.2697C72.2371 20.0776 71.7457 26.4932 71.7457 33.4746V49.9678C71.7457 54.9248 73.7999 57.0979 75.7349 59.7775C76.4196 60.7301 76.5686 61.8766 75.7051 62.5907C73.5467 64.3918 69.7062 67.7413 67.5926 69.617L67.5628 69.5872" fill="black"/>
<path d="M79.0922 75.8556C46.0728 91.5701 25.5806 78.4223 12.4628 70.4365C11.6511 69.9333 10.2715 70.5542 11.4685 71.9291C15.8387 77.2281 30.1606 90 48.855 90C67.5622 90 78.6912 79.7925 80.0834 78.0119C81.4662 76.2463 80.4894 75.2723 79.0919 75.8556H79.0922ZM88.3657 70.7343C87.4789 69.5797 82.9739 69.3644 80.1386 69.7127C77.299 70.0509 73.0368 71.7864 73.4074 72.8284C73.5975 73.2187 73.9856 73.0436 75.9363 72.8683C77.8924 72.6731 83.372 71.9815 84.5138 73.4741C85.661 74.9771 82.7661 82.1366 82.2374 83.2913C81.7266 84.446 82.4326 84.7437 83.3921 83.9747C84.3384 83.206 86.0516 81.2151 87.2013 78.3978C88.3431 75.5651 89.0393 71.6135 88.3653 70.7343H88.3657Z" fill="#FF9900"/>
<path fill-rule="evenodd" clip-rule="evenodd" d="M56.8903 43.7904C56.8903 47.9136 56.9945 51.3522 54.9104 55.0139C53.2283 57.9912 50.5638 59.8221 47.5868 59.8221C43.5228 59.8221 41.1561 56.7258 41.1561 52.1561C41.1561 43.1352 49.2387 41.498 56.8903 41.498V43.7904ZM67.5632 69.5872C66.8634 70.2122 65.8512 70.2571 65.0624 69.8401C61.5495 66.9226 60.9241 65.5681 58.9891 62.7843C53.1838 68.7089 49.0753 70.4801 41.5433 70.4801C32.6416 70.4801 25.7048 64.9873 25.7048 53.9869C25.7048 45.3981 30.3643 39.5479 36.988 36.6901C42.734 34.1592 50.7574 33.7127 56.8903 33.0134V31.6438C56.8903 29.128 57.0836 26.1509 55.6101 23.9778C54.3149 22.0277 51.844 21.2238 49.6705 21.2238C45.6367 21.2238 42.0343 23.2928 41.1561 27.5798C40.9772 28.5327 40.2778 29.4706 39.3252 29.5151L29.054 28.4138C28.1908 28.2199 27.2382 27.5205 27.4764 26.1955C29.8431 13.7514 41.0814 10 51.1439 10C56.2945 10 63.0226 11.3696 67.0865 15.2697C72.2371 20.0776 71.7457 26.4932 71.7457 33.4746V49.9678C71.7457 54.9248 73.7999 57.0979 75.7349 59.7775C76.4196 60.7301 76.5686 61.8766 75.7051 62.5907C73.5467 64.3918 69.7062 67.7413 67.5926 69.617L67.5628 69.5872" fill="black"/>
</svg>
