<?xml version="1.0" encoding="utf-8"?>
<!-- Generator: Adobe Illustrator 27.0.1, SVG Export Plug-In . SVG Version: 6.00 Build 0)  -->
<svg version="1.2" baseProfile="tiny" id="sidebar-icons"
	 xmlns="http://www.w3.org/2000/svg" xmlns:xlink="http://www.w3.org/1999/xlink" x="0px" y="0px" viewBox="0 0 200 200"
	 overflow="visible" xml:space="preserve">
<path fill="#006E6E" d="M66.1,74.1c-2.4,0-4.5-1.8-4.9-4.3l-5.1-34.2c-0.4-2.7,1.5-5.3,4.2-5.7c2.7-0.4,5.2,1.5,5.7,4.2L71,68.4
	c0.4,2.7-1.5,5.3-4.2,5.7C66.6,74.1,66.3,74.1,66.1,74.1z"/>
<path fill="#006E6E" d="M137.4,77.1c-0.4,0-0.7,0-1.1-0.1c-2.7-0.6-4.4-3.3-3.8-6l8.3-37.2c0.6-2.7,3.3-4.4,5.9-3.8
	c2.7,0.6,4.4,3.3,3.8,6l-8.3,37.2C141.7,75.6,139.7,77.2,137.4,77.1L137.4,77.1z"/>
<path fill="#006E6E" d="M106.4,72c-0.6,0-1.2,0-1.5-0.1c-3.3,0-6.2-1.3-8.4-3.6c-4.1-4.4-4.2-11.2-4.2-13.4c-0.6-3.9-2-5.7-3.2-5.8
	c-0.3,0.1-0.3,0-0.7,0c-4.9-0.1-5.6,4.1-5.7,5c-0.3,2.8-2.7,4.8-5.4,4.5c-2.7-0.3-4.7-2.7-4.5-5.5c0.6-5.7,5.1-14,15.3-14
	c0.1,0,0.1,0,0.2,0c1.3-0.1,4.5,0,7.6,2.4c3.3,2.5,5.4,6.7,6.2,12.4c0.1,0.3,0.1,0.7,0,1c-0.1,1.8,0.3,5.2,1.5,6.5
	c0.2,0.2,0.4,0.5,1.4,0.5c0.4,0,0.6,0,0.9,0.1c0.3,0,1.7,0.1,2.7-0.8c1.2-1,1.9-3.4,1.9-6.7c0.1-7.8,2.3-13.2,6.7-16
	c4.4-3,9.5-2.1,11.8-1.2c2.5,1.1,3.7,4,2.7,6.5c-1,2.5-3.9,3.7-6.4,2.7c-0.2,0-1.7-0.5-2.7,0.2c-1.3,0.9-2.1,3.8-2.1,7.8
	c-0.1,6.5-1.9,11.3-5.6,14.3C111.9,71.5,108.5,71.9,106.4,72L106.4,72z M89.2,49L89.2,49z"/>
<path fill="#006E6E" d="M147.1,138.8c-2.8,0-5,2.3-4.9,5c0.1,8.7-7,15.8-15.6,15.9L74.6,160c0,0-0.1,0-0.1,0c-4.2,0-8.1-1.6-11-4.6
	c-3-3-4.6-6.9-4.6-11.1l-0.2-32.9c-0.1-12.7,10.2-23.1,22.8-23.2l10.4-0.1l0,0l27.1-0.1c0,0,0.1,0,0.1,0c6.1,0,11.8,2.4,16.1,6.7
	c4.4,4.3,6.8,10.1,6.8,16.3c0,0.1,0,0.2,0,0.3l0.4,6.9c0.2,2.7,2.4,4.7,5,4.7c0.1,0,0.2,0,0.3,0c2.7-0.2,4.8-2.6,4.6-5.3l-0.4-6.8
	c-0.1-8.8-3.5-17-9.8-23.2c-6.2-6.2-14.4-9.6-23.1-9.6c-0.1,0-0.1,0-0.2,0l-27.1,0.1l0,0l-10.4,0.1c-18.1,0.1-32.8,15-32.7,33.2
	l0.2,32.9c0,6.9,2.7,13.4,7.6,18.2c4.8,4.8,11.2,7.5,18,7.5c0.1,0,0.1,0,0.2,0l51.9-0.3c14.1-0.1,25.6-11.7,25.5-25.9
	C152.1,141,149.8,138.8,147.1,138.8L147.1,138.8z"/>
<path fill="#006E6E" d="M25.1,119.9c-11.1,0-20.1-8.7-20.1-19.5c0-5.3,2.1-10.2,5.9-14c3.8-3.7,8.8-5.7,14.1-5.7h0.1
	c11.1,0,20.1,8.7,20.1,19.5c0,5.3-2.1,10.2-5.9,14c-3.8,3.7-8.8,5.7-14.1,5.7H25.1z M25.1,90.7c-2.8,0-5.4,1.1-7.3,2.9
	c-1.9,1.8-2.9,4.2-2.9,6.7c0,5.3,4.6,9.5,10.2,9.5h0.1c2.8,0,5.4-1.1,7.3-2.9c1.9-1.8,2.9-4.2,2.9-6.7
	C35.4,94.9,30.8,90.7,25.1,90.7C25.2,90.7,25.1,90.7,25.1,90.7z"/>
<path fill="#006E6E" d="M174.8,117.4c-11.1,0-20.1-8.7-20.1-19.5c0-5.3,2.1-10.2,5.9-14c3.8-3.7,8.8-5.7,14.1-5.7h0.1
	c11.1,0,20.1,8.7,20.1,19.5c0,5.3-2.1,10.2-5.9,14c-3.8,3.7-8.8,5.7-14.1,5.7H174.8z M174.9,88.2L174.9,88.2c-2.8,0-5.4,1.1-7.3,2.9
	c-1.9,1.8-2.9,4.2-2.9,6.7c0,5.3,4.6,9.5,10.2,9.5h0.1c2.8,0,5.4-1.1,7.3-2.9c1.9-1.8,2.9-4.2,2.9-6.7
	C185,92.5,180.5,88.2,174.9,88.2z"/>
<path fill="#006E6E" d="M84.1,147.5c-2.7,0-5-2.2-5-5s2.2-5,4.9-5l31.7-0.1h0c2.7,0,5,2.2,5,5s-2.2,5-4.9,5L84.1,147.5L84.1,147.5z"
	/>
</svg>
