<?xml version="1.0" encoding="utf-8"?>
<!-- Generator: Adobe Illustrator 27.0.1, SVG Export Plug-In . SVG Version: 6.00 Build 0)  -->
<svg version="1.2" baseProfile="tiny" id="sidebar-icons"
	 xmlns="http://www.w3.org/2000/svg" xmlns:xlink="http://www.w3.org/1999/xlink" x="0px" y="0px" viewBox="0 0 200 200"
	 overflow="visible" xml:space="preserve">
<path fill="#006E6E" d="M151.9,72.8c-5.4-2-10.7-1.9-15.4,0.2c-5.4,2.4-8.8,6.9-10.8,10.2l-5.6-1.4c-0.2,0-0.3-0.1-0.5-0.1
	c-21.1-2.9-36.2,2.8-46.1,17.4L26,161.8c-1.1,1.5-1.3,3.5-0.5,5.2c0.9,1.7,2.6,2.8,4.5,2.8l20.8,0.1l-8.4,11.1
	c-0.1,0.1-0.1,0.2-0.2,0.3c-1,1-1.7,2.3-1.6,3.8c0.1,2.7,2.3,4.8,5,4.8c0.1,0,0.1,0,0.2,0l97-3.9c2.8-0.1,4.9-2.4,4.8-5.2
	c-0.1-2.8-2.5-4.9-5.2-4.8l-86.3,3.4l7.3-9.6l98.7,0.6h0c2.2,0,4.1-1.4,4.8-3.5C167.9,163.9,192,87.7,151.9,72.8L151.9,72.8z
	 M164.6,126.1c-1.1,14.5-4.5,28.3-6.3,34.6L70.9,160L98,124.3c1.7-2.2,1.2-5.3-1-7c-2.2-1.7-5.4-1.2-7.1,1L58.3,160l-18.3-0.1
	L81.6,105c0.1-0.1,0.1-0.1,0.2-0.2c7.8-11.5,18.9-15.6,36.2-13.2l9.3,2.3c2.5,0.6,5-0.7,5.9-3.1c0,0,1.4-3.6,4.2-6.4
	c3.2-3.2,6.7-3.9,11-2.3C160.9,86.8,166.4,101.6,164.6,126.1L164.6,126.1z"/>
<path fill="#006E6E" d="M76.6,39.5c0,0.7-0.1,1.3-0.1,2c0,17.3,13.9,31.5,31,31.5s31-14.1,31-31.5S124.7,10,107.6,10
	c-12.9,0-24,8-28.6,19.4c-7.1-3.8-10.5-8.4-10.8-8.8c-1.6-2.2-4.7-2.8-7-1.2c-2.3,1.6-2.8,4.7-1.3,7C60.2,26.9,65.6,34.2,76.6,39.5
	L76.6,39.5z M107.6,20c11.5,0,20.9,9.6,20.9,21.5s-9.4,21.5-20.9,21.5S87.5,54.1,86.7,43c4.3,1,9.1,1.7,14.5,1.7
	c4.6,0,9.5-0.5,14.9-1.5c2.7-0.5,4.5-3.2,3.9-5.9s-3.2-4.5-5.9-3.9c-10.6,2.1-19.1,1.5-25.9-0.3C91.5,25.4,98.9,20,107.6,20
	L107.6,20z"/>
</svg>
