<svg width="100" height="100" viewBox="0 0 100 100" fill="none" xmlns="http://www.w3.org/2000/svg">
<rect width="100" height="100" fill="white"/>
<path d="M20.5185 41.1111C14.781 41.1111 10 43.4703 10 50.588C10 56.2268 13.2149 59.7778 20.6667 59.7778C29.4377 59.7778 30 54.1778 30 54.1778H25.75C25.75 54.1778 24.8388 57.1932 20.4074 57.1932C16.7982 57.1932 14.2023 54.8301 14.2023 51.5178H30.4444V49.4393C30.4444 46.1625 28.2982 41.1111 20.5185 41.1111V41.1111ZM20.3704 43.7675C23.806 43.7675 26.1481 45.8075 26.1481 48.865H14.2963C14.2963 45.6191 17.3534 43.7675 20.3704 43.7675V43.7675Z" fill="#E53238"/>
<path d="M30.5328 34V56.1261C30.5328 57.382 30.4445 59.1455 30.4445 59.1455H34.3394C34.3394 59.1455 34.4792 57.879 34.4792 56.7214C34.4792 56.7214 36.4036 59.7778 41.6361 59.7778C47.1461 59.7778 50.8889 55.8942 50.8889 50.3301C50.8889 45.154 47.4511 40.9909 41.645 40.9909C36.208 40.9909 34.5186 43.9715 34.5186 43.9715V34H30.5328ZM40.6397 43.7276C44.3814 43.7276 46.7607 46.5469 46.7607 50.3301C46.7607 54.387 44.0127 57.041 40.6663 57.041C36.6728 57.041 34.5186 53.8755 34.5186 50.3663C34.5186 47.0964 36.4516 43.7276 40.6397 43.7276Z" fill="#0064D2"/>
<path d="M60.9293 41.1111C52.6901 41.1111 52.1616 45.6667 52.1616 46.3947H56.2627C56.2627 46.3947 56.4777 43.7351 60.6465 43.7351C63.3554 43.7351 65.4546 44.9871 65.4546 47.3943V48.2511H60.6465C54.2634 48.2511 50.8889 50.1367 50.8889 53.9631C50.8889 57.7289 54.0069 59.7778 58.2204 59.7778C63.9627 59.7778 65.8125 56.5737 65.8125 56.5737C65.8125 57.8481 65.9098 59.1039 65.9098 59.1039H69.5556C69.5556 59.1039 69.4142 57.5473 69.4142 56.5514V47.9432C69.4142 42.2989 64.9057 41.1111 60.9293 41.1111V41.1111ZM65.4546 50.8215V51.9639C65.4546 53.4539 64.5441 57.1583 59.1837 57.1583C56.2484 57.1583 54.9899 55.679 54.9899 53.9631C54.9899 50.8416 59.2281 50.8215 65.4546 50.8215V50.8215Z" fill="#F5AF02"/>
<path d="M66.8889 42H71.7311L78.6804 55.4808L85.6137 42H90L77.3711 66H72.7701L76.4143 59.3097L66.8889 42Z" fill="#86B817"/>
</svg>
