<?xml version="1.0" encoding="utf-8"?>
<!-- Generator: Adobe Illustrator 27.2.0, SVG Export Plug-In . SVG Version: 6.00 Build 0)  -->
<svg version="1.2" baseProfile="tiny" id="Livello_1"
	 xmlns="http://www.w3.org/2000/svg" xmlns:xlink="http://www.w3.org/1999/xlink" x="0px" y="0px" viewBox="0 0 120 120"
	 overflow="visible" xml:space="preserve">
<rect y="0" fill="#051AB1" width="120" height="120"/>
<g>
	<path fill="#FFD100" d="M99.9,74.9c2.7,0,5-2.2,5-4.9c0-2.7-2.2-4.9-5-4.9s-5,2.2-5,4.9C95,72.7,97.2,74.9,99.9,74.9z"/>
	<path fill="#FFFFFF" d="M29.4,59v6.5h5.4c-0.8,1.2-2.6,1.9-3.8,1.9c-4.1,0-6.1-2.3-6.1-7c0-5.1,2.7-7.8,8-7.8
		c2.1,0,4.9,0.5,7.8,1.5v-7.7c-0.9-0.4-2.1-0.6-3.8-0.9c-1.7-0.3-3.2-0.4-4.5-0.4c-5.3,0-9.5,1.4-12.6,4.2
		c-3.1,2.8-4.7,6.6-4.7,11.4c0,4.4,1.2,7.9,3.7,10.4c2.4,2.6,5.7,3.9,9.9,3.9c4.2,0,8-2.1,9.2-4.9l0,4.4h6V59H29.4z"/>
	<path fill="#FFFFFF" d="M46.8,74.5v-29h9.3V67h10.2v7.6H46.8z"/>
	<path fill="#FFFFFF" d="M69.7,73.8v-7.9c1.4,0.4,3,0.8,4.8,1.1c1.8,0.3,3.4,0.5,4.7,0.5c2.3,0,3.4-0.6,3.4-1.6c0-0.6-0.4-1-2-1.3
		l-3.2-0.7c-5.6-1.3-8.2-4-8.2-8.8c0-3.1,1.1-5.6,3.2-7.4c2.1-1.8,5.1-2.7,8.9-2.7c2.6,0,6.6,0.5,9,1.1v7.6
		c-1.3-0.3-2.8-0.6-4.6-0.9c-1.8-0.3-3.2-0.4-4.3-0.4c-2,0-3.1,0.6-3.1,1.6c0,0.6,0.5,1,1.6,1.3l3.8,0.9c5.5,1.3,8.1,4.1,8.1,8.9
		c0,3.1-1.1,5.5-3.4,7.3c-2.2,1.8-5.3,2.7-9.2,2.7C75.6,75,71.8,74.5,69.7,73.8z"/>
</g>
</svg>
