<?xml version="1.0" encoding="utf-8"?>
<!-- Generator: Adobe Illustrator 27.0.1, SVG Export Plug-In . SVG Version: 6.00 Build 0)  -->
<svg version="1.2" baseProfile="tiny" id="sidebar-icons"
	 xmlns="http://www.w3.org/2000/svg" xmlns:xlink="http://www.w3.org/1999/xlink" x="0px" y="0px" viewBox="0 0 200 200"
	 overflow="visible" xml:space="preserve">
<path fill="#006E6E" d="M100.6,51.1c-7.1,0-12.9,2.2-17.3,6.5c-4.4,4.3-6.7,10.1-6.7,17.1v5.1c0,2,1.3,3.3,3.3,3.3h1.3
	c2,0,3.3-1.3,3.3-3.3v-5.1c0-4.8,1.4-8.6,4.3-11.5c2.9-2.9,6.7-4.3,11.7-4.3s8.6,1.4,11.4,4.3c2.9,2.9,4.3,6.7,4.3,11.7
	c0,3-0.5,5.6-1.5,7.7c-1,2.2-2.2,4-3.6,5.5c-1.5,1.6-3.6,3.4-6.1,5.6c-3.6,3.1-6.3,5.7-8,8.1c-1.9,2.6-2.9,5.9-2.9,9.8v9.9
	c0,2,1.3,3.3,3.3,3.3H99c2,0,3.3-1.3,3.3-3.3v-9.7c0-2.2,0.6-4,1.7-5.4c1.3-1.7,3.5-3.7,6.5-6.1c2.9-2.4,5.2-4.6,7-6.5
	c1.8-2,3.4-4.5,4.8-7.6s2-6.7,2-10.9c0-7.2-2.2-13-6.5-17.4C113.5,53.3,107.7,51.1,100.6,51.1L100.6,51.1z"/>
<path fill="#006E6E" d="M98.3,133.6c-2.1,0-3.9,0.7-5.4,2.2c-1.4,1.4-2.2,3.3-2.2,5.5s0.7,4,2.2,5.4l0,0c1.4,1.4,3.3,2.2,5.4,2.2
	s4.1-0.7,5.5-2.2c1.4-1.4,2.2-3.3,2.2-5.4s-0.7-4.1-2.2-5.6C102.4,134.3,100.6,133.6,98.3,133.6L98.3,133.6z"/>
<path fill="#006E6E" d="M160.8,20H40.1c-10.8,0-19.6,8.6-19.6,19.2v121.6c0,10.6,8.8,19.2,19.6,19.2h120.7
	c10.8,0,19.6-8.6,19.6-19.2V39.2C180.5,28.6,171.7,20,160.8,20z M170.5,160.8c0,5.2-4.3,9.4-9.6,9.4H40.1c-5.3,0-9.6-4.2-9.6-9.4
	V39.2c0-5.2,4.3-9.4,9.6-9.4h120.7c5.3,0,9.6,4.2,9.6,9.4V160.8L170.5,160.8z"/>
</svg>
