<?xml version="1.0" encoding="utf-8"?>
<!-- Generator: Adobe Illustrator 27.0.1, SVG Export Plug-In . SVG Version: 6.00 Build 0)  -->
<svg version="1.2" baseProfile="tiny" id="sidebar-icons"
	 xmlns="http://www.w3.org/2000/svg" xmlns:xlink="http://www.w3.org/1999/xlink" x="0px" y="0px" viewBox="0 0 200 200"
	 overflow="visible" xml:space="preserve">
<path fill="#006E6E" d="M149.1,80.9c-0.6-2.7-3.3-4.3-6-3.7l-16.4,3.7l-1.4-31.4c-0.1-1.8-1.1-3.3-2.7-4.2c-1.6-0.8-3.5-0.7-5,0.2
	L62.5,80c-1.5,0.9-2.4,2.6-2.3,4.4c0.1,1.8,1.1,3.3,2.7,4.2l57.9,29.8c0.7,0.4,1.5,0.6,2.3,0.6c0.9,0,1.9-0.3,2.7-0.8
	c1.5-0.9,2.4-2.6,2.3-4.4l-1-22.9l13.3-3l15,64.3L41,178.2l-15-64.3l29.7-6.7c2.7-0.6,4.4-3.3,3.8-5.9c-0.6-2.7-3.3-4.3-6-3.7
	l-34.5,7.8c-1.3,0.3-2.4,1.1-3.1,2.2s-0.9,2.4-0.6,3.7l17.2,73.9c0.3,1.3,1.1,2.4,2.2,3.1c0.8,0.5,1.7,0.8,2.7,0.8
	c0.4,0,0.8,0,1.1-0.1l124.2-28.1c2.7-0.6,4.4-3.3,3.8-5.9L149.1,80.9L149.1,80.9z M117.7,105.7L75.2,83.8l40.5-25.4l1.1,24.7
	l-8.1,1.8c-2.7,0.6-4.4,3.3-3.8,5.9s3.3,4.3,6,3.7l6.3-1.4L117.7,105.7L117.7,105.7z"/>
<path fill="#006E6E" d="M168.9,61.8c-13.2,0-24-10.8-24-24s10.8-24,24-24s24,10.7,24,24S182.1,61.8,168.9,61.8z M168.9,23.9
	c-7.7,0-14,6.3-14,14s6.3,14,14,14s14-6.3,14-14S176.6,23.9,168.9,23.9z"/>
</svg>
