<?xml version="1.0" encoding="utf-8"?>
<!-- Generator: Adobe Illustrator 26.5.0, SVG Export Plug-In . SVG Version: 6.00 Build 0)  -->
<svg version="1.1" id="Livello_1" xmlns="http://www.w3.org/2000/svg" xmlns:xlink="http://www.w3.org/1999/xlink" x="0px" y="0px"
	 viewBox="0 0 85 35" style="enable-background:new 0 0 85 35;" xml:space="preserve">
<style type="text/css">
	.st0{clip-path:url(#SVGID_00000013193719451926824920000003610409248405429120_);}
	.st1{fill:#F46D5B;}
	.st2{fill:#00BAAD;}
	.st3{fill:#FFCC00;}
	.st4{fill:#356FB0;}
</style>
<g>
	<defs>
		<rect id="SVGID_1_" width="85" height="35"/>
	</defs>
	<clipPath id="SVGID_00000091007822015615856070000015080937724957678226_">
		<use xlink:href="#SVGID_1_"  style="overflow:visible;"/>
	</clipPath>
	<g style="clip-path:url(#SVGID_00000091007822015615856070000015080937724957678226_);">
		<path class="st1" d="M4.5,0L4.5,0C2,0,0,2,0,4.4v0c0,2.4,2,4.4,4.5,4.4h0c2.5,0,4.5-2,4.5-4.4v0C8.9,2,6.9,0,4.5,0z"/>
		<path class="st2" d="M44.1,25.6c-4.9,4.8-10.2,0-10.2,0l0,0c-10.2-10-20.5,0-20.5,0l5.1,5c4.9-4.8,10.1-0.1,10.2,0l0,0
			c10.2,10,20.5,0,20.5,0L44.1,25.6z"/>
		<path class="st3" d="M8.9,13.1H0V35h8.9V13.1z"/>
		<path class="st4" d="M85,17.5l-8.9,0c0,1.1-0.2,2.3-0.7,3.3c-0.5,1.1-1.1,2-1.9,2.8c-0.8,0.8-1.8,1.5-2.9,1.9
			c-1.1,0.4-2.3,0.7-3.4,0.7c-2.4,0-4.6-0.9-6.3-2.6c-1.7-1.6-2.6-3.9-2.6-6.2h-8.9c0,4.6,1.9,9.1,5.2,12.4
			c3.4,3.3,7.9,5.1,12.7,5.1l0,0c0,0,0,0,0,0s0,0,0,0l0,0c4.7,0,9.3-1.8,12.7-5.1C83.1,26.6,85,22.1,85,17.5z"/>
	</g>
</g>
</svg>
