<?xml version="1.0" encoding="utf-8"?>
<!-- Generator: Adobe Illustrator 27.0.1, SVG Export Plug-In . SVG Version: 6.00 Build 0)  -->
<svg version="1.2" baseProfile="tiny" id="sidebar-icons"
	 xmlns="http://www.w3.org/2000/svg" xmlns:xlink="http://www.w3.org/1999/xlink" x="0px" y="0px" viewBox="0 0 200 200"
	 overflow="visible" xml:space="preserve">
<path fill="#006E6E" d="M169,172.4c-0.2-0.3-20.1-27.1-12.6-62.6c0-0.1,0-0.2,0.1-0.3c0.3-1.7,0.5-3,0.7-4.2
	c0.5-2.4,0.9-4.5,1.1-8.7c0-0.1,0-0.2,0-0.2c0-20.2-12.6-37.5-30.4-44.5c0.6-2.5,0.8-5.1,0.8-7.7c10.2-3.8,20.7-13.9,19.5-21.9
	c-0.4-2.5-2.4-8.1-12.8-7.5c-6.1,0.4-10.5,2.2-13.4,5.5c-3.7,4.2-4,9.7-3.8,15c-2-0.7-3.3-2.3-4.3-5.2c-1.1-3.1-0.9-12.5,6.1-15.9
	c2.5-1.2,3.5-4.2,2.3-6.7c-1.2-2.5-4.2-3.5-6.7-2.3c-12.7,6.2-13.6,21.4-11.2,28.2c2.6,7.2,7.7,11.5,14.3,12.1
	c0,1.3-0.2,2.4-0.4,3.5c-2.6-0.4-5.2-0.7-7.8-0.7c-26.2,0-44.5,18.1-47.8,47.2c0,0,0,0.1,0,0.1c-3.2,36.1-30.3,56-30.5,56.2
	c-1.5,1.1-2.3,2.8-2.1,4.6s1.4,3.4,3,4.1c10.3,4.4,24.1,8.1,41.2,11.1C75.2,184.9,86,195,99,195c10.7,0,20.2-7,23.6-16.9
	c23.7,2,42.1,2.3,42.3,2.3c0,0,0.1,0,0.1,0c1.9,0,3.6-1.1,4.4-2.7C170.3,176,170.1,173.9,169,172.4L169,172.4z M129.6,27.1
	c1.1-1.2,3.2-1.9,6.5-2.1c0.4,0,0.7,0,1,0c0.3,0,0.6,0,0.9,0c-1.2,2.4-5.1,6.2-9.7,8.7C128.2,30.8,128.4,28.4,129.6,27.1L129.6,27.1
	z M99.1,185c-6.9,0-12.8-4.8-14.4-11.3c8.5,1.3,17.7,2.4,27.5,3.4C109.6,181.8,104.6,185,99.1,185z M44.6,154.6
	c9.4-9,25.4-28.5,28-57.7c2.8-24.3,16.6-38.3,37.8-38.3s37.8,16.9,37.8,37.7c-0.1,3.3-0.5,4.9-0.9,7.1c-0.2,1.2-0.5,2.6-0.8,4.5
	c-5.9,27.9,3,50.6,9.3,62.2C133.9,169.2,78.2,165.9,44.6,154.6L44.6,154.6z"/>
<path fill="#006E6E" d="M121.1,68c-2.6-0.8-5.4,0.6-6.3,3.3c-0.8,2.6,0.6,5.4,3.3,6.3c0.1,0,12.4,4.1,12.2,21.8c0,2.8,2.2,5,4.9,5.1
	c0,0,0.1,0,0.1,0c2.7,0,5-2.2,5-4.9C140.7,74.4,121.9,68.2,121.1,68L121.1,68z"/>
</svg>
