<?xml version="1.0" encoding="utf-8"?>
<!-- Generator: Adobe Illustrator 27.0.1, SVG Export Plug-In . SVG Version: 6.00 Build 0)  -->
<svg version="1.2" baseProfile="tiny" id="sidebar-icons"
	 xmlns="http://www.w3.org/2000/svg" xmlns:xlink="http://www.w3.org/1999/xlink" x="0px" y="0px" viewBox="0 0 200 200"
	 overflow="visible" xml:space="preserve">
<path fill="#006E6E" d="M112.9,183H85c-1.9,0-3.6-1.1-4.5-2.7L72.3,164l-17.6,4.1c-1.8,0.4-3.7-0.2-4.9-1.6L32,146.2
	c-1.2-1.3-1.5-3.2-1-4.9l5.1-15.6l-16.2-8.1c-1.7-0.8-2.8-2.6-2.8-4.4L17,83.8c0-2.1,1.3-4,3.3-4.7l17-6.3l-5.9-17.5
	c-0.6-1.7-0.2-3.5,0.9-4.8l17.8-21.4c1.3-1.6,3.5-2.2,5.5-1.5l16.8,5.9l6.2-13.6c0.8-1.8,2.6-2.9,4.6-2.9h31.4c2,0,3.8,1.2,4.6,3.1
	l6.6,16l21-3.9c1.8-0.3,3.7,0.3,4.8,1.8l15.9,20c1.4,1.8,1.4,4.3,0.1,6.1c-1,1.6-9.3,15.3-14.3,23.6c-0.7,1.1-1.8,1.9-3,2.3
	l-22.3,5.9c-2.3,0.6-4.7-0.5-5.7-2.6c-4.3-8.5-13-13.8-22.6-13.7c-13.8,0.1-25,11.2-25,24.8c0,6.6,2.7,12.7,7.4,17.4
	c4.8,4.7,11.1,7.2,17.8,7.2c9.4-0.1,17.8-5.2,22.2-13.3c1.3-2.4,4.3-3.4,6.8-2.1c2.4,1.3,3.4,4.3,2.1,6.8
	c-6,11.4-17.9,18.6-30.9,18.7c-9.4,0.1-18.2-3.5-24.8-10c-6.7-6.5-10.4-15.2-10.4-24.5C64.3,81.3,80,65.7,99.3,65.6
	c12.1-0.1,23.1,5.8,29.5,15.6l16.7-4.4c6.4-10.8,9.9-16.4,11.7-19.4l-11.8-14.9l-22,4.1c-2.3,0.4-4.7-0.8-5.6-3L111.1,27H86.3
	l-6.8,14.8c-1.1,2.3-3.8,3.5-6.2,2.6l-17.8-6.2L41.7,54.8l6.6,19.4c0.9,2.6-0.5,5.3-3,6.3L27,87.2l0.1,22.8l17.3,8.7
	c2.2,1.1,3.3,3.7,2.5,6l-5.6,17l14,16l18.5-4.3c2.2-0.5,4.6,0.6,5.6,2.6l8.7,17h21.8l9.6-18.7c1.2-2.4,4.2-3.4,6.6-2.2l15.6,7.6
	l14.9-17.5l-5.2-21.6c-0.6-2.6,0.9-5.2,3.4-6l21.7-6.7c2.6-0.8,5.4,0.7,6.2,3.3s-0.7,5.4-3.3,6.2l-17.2,5.3l4.7,19.5
	c0.4,1.6,0,3.2-1.1,4.4l-19.1,22.4c-1.5,1.7-3.9,2.2-6,1.2l-14.7-7.2l-8.8,17C116.5,181.9,114.8,183,112.9,183L112.9,183z
	 M167.4,60.1c-0.1,0.1-0.1,0.2-0.2,0.3C167.2,60.3,167.3,60.2,167.4,60.1z"/>
</svg>
