<?xml version="1.0" encoding="utf-8"?>
<!-- Generator: Adobe Illustrator 27.0.1, SVG Export Plug-In . SVG Version: 6.00 Build 0)  -->
<svg version="1.2" baseProfile="tiny" id="sidebar-icons"
	 xmlns="http://www.w3.org/2000/svg" xmlns:xlink="http://www.w3.org/1999/xlink" x="0px" y="0px" viewBox="0 0 200 200"
	 overflow="visible" xml:space="preserve">
<path fill="#006E6E" d="M183.5,119.6l-1.3-16.3c-0.1-0.6-0.2-1.2-0.5-1.8l-6.6-13.2c-0.8-1.7-2.6-2.8-4.5-2.8h-0.8l-3.5-11.6h0.9
	c1.7,0,3.4-0.9,4.3-2.4c0.9-1.5,1-3.3,0.2-4.8l-8.6-16.9c-0.8-1.5-2.3-2.6-4.1-2.7L132.8,45l0,0c0-2.7-2.3-4.9-5-4.9l0,0l-28.4,0.2
	c-0.3,0-0.6,0-0.9,0.1l-78.7,1h-0.1h-0.1c-0.1,0-0.2,0-0.4,0.1c-0.2,0-0.3,0-0.5,0.1s-0.3,0.1-0.5,0.2c-0.2,0-0.3,0.1-0.5,0.2
	s-0.3,0.2-0.4,0.2c-0.1,0.1-0.3,0.2-0.4,0.2s-0.2,0.2-0.4,0.3s-0.2,0.2-0.4,0.3c-0.1,0.1-0.2,0.2-0.3,0.4c-0.1,0.1-0.2,0.2-0.3,0.4
	c-0.1,0.1-0.1,0.3-0.2,0.4c-0.1,0.2-0.1,0.3-0.2,0.4C15,44.8,15,44.9,15,45.1s-0.1,0.3-0.1,0.5s0,0.3,0,0.5c0,0.1,0,0.2,0,0.4v0.1
	v0.1L18,93.8c0.2,2.6,2.4,4.6,5,4.6c0.1,0,0.2,0,0.3,0c2.8-0.2,4.8-2.5,4.7-5.3l-2.8-41.8l72.5-0.9l19,84.4H72
	c-1.1-4.4-3.7-8.4-7.4-11.2c-4.4-3.3-9.8-4.8-15.2-4.1c-5.5,0.7-10.3,3.5-13.7,7.8c-1.8,2.3-3,4.8-3.7,7.5h-6.6l1.5-21.2
	c0.2-2.7-1.9-5.1-4.6-5.3c-2.8-0.2-5.1,1.9-5.3,4.6l-1.8,26.5c-0.1,1.4,0.4,2.7,1.3,3.7c1,1,2.3,1.6,3.6,1.6h12
	c1.1,4.4,3.7,8.4,7.4,11.2c3.6,2.8,8,4.3,12.5,4.3c0.9,0,1.8-0.1,2.7-0.2c5.5-0.7,10.3-3.5,13.7-7.8c1.8-2.3,3-4.8,3.7-7.5h63.2
	c2.3,9.1,10.6,15.5,20,15.5c0.9,0,1.8-0.1,2.6-0.2c8.6-1.1,15.3-7.4,17.3-15.3h4.9c1.4,0,2.7-0.6,3.7-1.6s1.4-2.4,1.3-3.8
	L183.5,119.6L183.5,119.6z M152.5,119.2c-5.5,0.7-10.3,3.5-13.7,7.8c-1.8,2.3-3,4.8-3.7,7.5h-1.6l-0.3-39.1h8.8c2.8,0,5-2.2,5-5
	s-2.2-5-5-5h-8.9l-0.2-30.7l22.5,1.8l3.7,7.3h-11.5c-2.8,0-5,2.2-5,5s2.2,5,5,5h8.2l3.7,12.4c-1.4,0.9-2.4,2.4-2.4,4.2
	c0,2.7,2.2,5,5,5h5.3l4.8,9.6l1.2,15.3l0,0l0.9,12C171.1,123.7,162.2,118,152.5,119.2L152.5,119.2z"/>
<path fill="#006E6E" d="M45.2,109.5h8c1.7,0,3.2-1,3.8-2.6L68.7,75c0.4-1.2,0.3-2.6-0.5-3.7s-2-1.7-3.3-1.7h-8c-1.7,0-3.2,1-3.8,2.6
	L41.3,104c-0.5,1.2-0.3,2.6,0.5,3.7S43.9,109.5,45.2,109.5z"/>
<path fill="#006E6E" d="M74.7,109.5h8c1.7,0,3.2-1,3.8-2.6L98.2,75c0.4-1.2,0.3-2.6-0.5-3.7s-2-1.7-3.3-1.7h-8c-1.7,0-3.2,1-3.8,2.6
	L70.8,104c-0.4,1.2-0.3,2.6,0.5,3.7S73.3,109.5,74.7,109.5z"/>
</svg>
