<svg width="100" height="100" viewBox="0 0 100 100" fill="none" xmlns="http://www.w3.org/2000/svg">
<rect width="100" height="100" fill="white"/>
<path fill-rule="evenodd" clip-rule="evenodd" d="M100 0H0V100H100V0ZM55.6941 43.9957C55.645 43.9756 55.5923 43.9656 55.5392 43.9661C55.3618 43.9661 52.7172 43.9661 52.7172 43.9984C52.6683 43.9976 52.6197 44.0066 52.5743 44.025C52.5289 44.0433 52.4877 44.0706 52.4531 44.1052C52.4185 44.1398 52.3912 44.181 52.3729 44.2264C52.3545 44.2718 52.3455 44.3204 52.3463 44.3693V51.1905C52.2578 50.987 52.1498 50.7926 52.0238 50.61C51.8303 50.3358 47.3312 44.208 47.3312 44.208C47.2198 44.0919 47.0717 44.0178 46.9119 43.9984H44.3802C44.3301 43.9959 44.28 44.0037 44.233 44.0213C44.186 44.0388 44.143 44.0658 44.1068 44.1005C44.0706 44.1352 44.0418 44.177 44.0223 44.2232C44.0027 44.2694 43.9928 44.3191 43.9931 44.3693V56.6087C43.9928 56.6589 44.0027 56.7086 44.0223 56.7548C44.0418 56.8011 44.0706 56.8428 44.1068 56.8775C44.143 56.9122 44.186 56.9392 44.233 56.9567C44.28 56.9743 44.3301 56.9821 44.3802 56.9796H47.2183C47.2684 56.9821 47.3185 56.9743 47.3655 56.9567C47.4125 56.9392 47.4554 56.9122 47.4917 56.8775C47.5279 56.8428 47.5566 56.8011 47.5762 56.7548C47.5957 56.7086 47.6056 56.6589 47.6053 56.6087V49.7875C47.6854 49.9919 47.7882 50.1866 47.9117 50.3681C48.0568 50.5293 52.6043 56.77 52.6043 56.77C52.7239 56.8838 52.8762 56.9571 53.0397 56.9796H55.5715C55.6204 56.9804 55.669 56.9714 55.7143 56.9531C55.7597 56.9347 55.8009 56.9074 55.8355 56.8728C55.8701 56.8382 55.8974 56.797 55.9158 56.7516C55.9341 56.7063 55.9432 56.6577 55.9423 56.6087V44.3693C55.9429 44.3162 55.9329 44.2635 55.9128 44.2144C55.8927 44.1652 55.863 44.1205 55.8255 44.083C55.788 44.0454 55.7433 44.0158 55.6941 43.9957ZM64.36 50.481C64.36 56.6571 69.3751 61.6884 75.5352 61.6884C81.6791 61.6884 86.6942 56.6571 86.6942 50.481C86.6942 44.2887 81.6791 39.2574 75.5352 39.2574C69.3751 39.2574 64.36 44.2887 64.36 50.481ZM38.8006 50.481C38.8006 56.6571 43.8158 61.6884 49.9758 61.6884C56.1197 61.6884 61.1348 56.6571 61.1348 50.481C61.1348 44.2887 56.1197 39.2574 49.9758 39.2574C43.8158 39.2574 38.8006 44.2887 38.8006 50.481ZM13.2413 50.481C13.2413 56.6571 18.2564 61.6884 24.4164 61.6884C30.5442 61.6884 35.5594 56.6571 35.5755 50.481C35.5755 44.2887 30.5604 39.2574 24.4164 39.2574C18.2564 39.2574 13.2413 44.2887 13.2413 50.481ZM62.7313 43.8049C65.1663 39.1768 69.9879 36 75.5352 36C83.4691 36 89.9516 42.4987 90 50.481C90 58.4471 83.5336 64.9458 75.5835 64.9458C72.941 64.9439 70.35 64.2147 68.0943 62.838C65.8387 61.4613 64.0056 59.4903 62.7958 57.1409C60.3608 61.769 55.5392 64.9458 49.9919 64.9458C47.3498 64.9418 44.7596 64.2117 42.5044 62.8352C40.2492 61.4588 38.4156 59.4889 37.2042 57.1409C34.7853 61.769 29.9476 64.9458 24.4164 64.9458C16.4664 64.9458 10 58.4471 10 50.481C10 42.4987 16.4664 36 24.3519 36C26.9967 36.0017 29.59 36.7307 31.8482 38.1073C34.1064 39.4838 35.9426 41.4549 37.1558 43.8049C38.3641 41.4543 40.1969 39.4823 42.4529 38.1054C44.7088 36.7285 47.3006 36 49.9436 36C52.5865 36 55.1783 36.7285 57.4343 38.1054C59.6902 39.4823 61.523 41.4543 62.7313 43.8049ZM18.8553 44.2346C18.9007 44.2163 18.9493 44.2072 18.9982 44.208H29.7702C29.8191 44.2072 29.8677 44.2163 29.9131 44.2346C29.9585 44.253 29.9997 44.2803 30.0343 44.3149C30.0689 44.3495 30.0962 44.3907 30.1145 44.436C30.1329 44.4814 30.1419 44.53 30.1411 44.5789V47.0139C30.1419 47.0628 30.1329 47.1114 30.1145 47.1568C30.0962 47.2022 30.0689 47.2434 30.0343 47.278C29.9997 47.3126 29.9585 47.3399 29.9131 47.3582C29.8677 47.3766 29.8191 47.3856 29.7702 47.3848H26.9643C26.7271 47.3819 26.4902 47.3657 26.2548 47.3364V56.9313C26.2556 56.9802 26.2466 57.0288 26.2282 57.0742C26.2098 57.1195 26.1826 57.1607 26.148 57.1953C26.1133 57.2299 26.0721 57.2572 26.0268 57.2756C25.9814 57.2939 25.9328 57.303 25.8839 57.3022H22.8684C22.8194 57.303 22.7709 57.2939 22.7255 57.2756C22.6801 57.2572 22.6389 57.2299 22.6043 57.1953C22.5697 57.1607 22.5424 57.1195 22.5241 57.0742C22.5057 57.0288 22.4967 56.9802 22.4975 56.9313V47.3364C22.3109 47.367 22.1222 47.3832 21.9331 47.3848H18.9982C18.9493 47.3856 18.9007 47.3766 18.8553 47.3582C18.8099 47.3399 18.7687 47.3126 18.7341 47.278C18.6995 47.2434 18.6722 47.2022 18.6539 47.1568C18.6355 47.1114 18.6265 47.0628 18.6273 47.0139V44.5789C18.6265 44.53 18.6355 44.4814 18.6539 44.436C18.6722 44.3907 18.6995 44.3495 18.7341 44.3149C18.7687 44.2803 18.8099 44.253 18.8553 44.2346ZM81.0802 44.2346C81.0348 44.2163 80.9862 44.2072 80.9373 44.208H70.1653C70.1164 44.2072 70.0678 44.2163 70.0224 44.2346C69.977 44.253 69.9358 44.2803 69.9012 44.3149C69.8666 44.3495 69.8393 44.3907 69.821 44.436C69.8026 44.4814 69.7936 44.53 69.7944 44.5789V47.0139C69.7936 47.0628 69.8026 47.1114 69.821 47.1568C69.8393 47.2022 69.8666 47.2434 69.9012 47.278C69.9358 47.3126 69.977 47.3399 70.0224 47.3582C70.0678 47.3766 70.1164 47.3856 70.1653 47.3848H73.1002C73.2893 47.3832 73.478 47.367 73.6646 47.3364V56.9313C73.6638 56.9802 73.6728 57.0288 73.6912 57.0742C73.7095 57.1195 73.7368 57.1607 73.7714 57.1953C73.806 57.2299 73.8472 57.2572 73.8926 57.2756C73.938 57.2939 73.9865 57.303 74.0355 57.3022H77.051C77.0999 57.303 77.1485 57.2939 77.1939 57.2756C77.2392 57.2572 77.2805 57.2299 77.3151 57.1953C77.3497 57.1607 77.377 57.1195 77.3953 57.0742C77.4137 57.0288 77.4227 56.9802 77.4219 56.9313V47.3364C77.6627 47.3661 77.9049 47.3823 78.1476 47.3848H80.9373C80.9862 47.3856 81.0348 47.3766 81.0802 47.3582C81.1256 47.3399 81.1668 47.3126 81.2014 47.278C81.236 47.2434 81.2633 47.2022 81.2816 47.1568C81.3 47.1114 81.309 47.0628 81.3082 47.0139V44.5789C81.309 44.53 81.3 44.4814 81.2816 44.436C81.2633 44.3907 81.236 44.3495 81.2014 44.3149C81.1668 44.2803 81.1256 44.253 81.0802 44.2346Z" fill="#FF6600"/>
</svg>
