<?xml version="1.0" encoding="utf-8"?>
<!-- Generator: Adobe Illustrator 26.5.0, SVG Export Plug-In . SVG Version: 6.00 Build 0)  -->
<svg version="1.2" baseProfile="tiny" id="Livello_1"
	 xmlns="http://www.w3.org/2000/svg" xmlns:xlink="http://www.w3.org/1999/xlink" x="0px" y="0px" viewBox="0 0 200 200"
	 overflow="visible" xml:space="preserve">
<g id="Raggruppa_1004">
	<g id="Tracciato_2763">
		<path fill="#FFCC00" d="M149.7,182.3c-6.8,0-13.6-1.3-20.3-4c-6.4-2.5-12.2-6-17.3-10c-17.1,3.9-37.8,5.5-56.5,2.8
			c-25.8-3.7-45-14.9-55.7-32.5L17.5,128c7.5,12.3,21.3,20,41.1,22.9c12.6,1.9,25.8,1.3,37.3-0.4c-1.6-2.5-2.8-5-3.6-7.3
			c-5.1-15,1.3-31.3,15-38.9c15.7-8.6,35.4-2.8,44,12.8c7.3,13.5,3.9,29.4-7.5,38.2c-1.7,1.5-3.8,2.8-6.3,4.2
			c9.7,3.6,19.2,2.9,28.4-1.9c23.4-12.3,9.3-62.5,9.2-63l19.6-5.8c0.8,2.7,19.3,66.5-19.2,87c-8.2,4.4-16.9,6.6-25.7,6.6H149.7z
			 M122.7,120.8c-1.9,0-3.8,0.4-5.5,1.5c-5.1,2.8-7.4,8.8-5.5,14.3c0.7,2.1,2.8,5.5,6.2,9.1c6.3-2,10.8-4.2,12.6-5.8l0.8-0.7
			c3.6-2.6,4.6-7.5,2.5-11.4c-2.5-4.5-6.7-6.9-11-6.9H122.7z"/>
	</g>
	<circle fill="#F46D5B" cx="170.2" cy="46.1" r="28.4"/>
</g>
</svg>
